<svg xmlns="http://www.w3.org/2000/svg" viewBox="0 0 1200 400" width="1200" height="400">
  <defs>
    <linearGradient id="bgG" x1="0%" y1="0%" x2="100%" y2="100%">
      <stop offset="0%" style="stop-color:#0f1117"/>
      <stop offset="100%" style="stop-color:#1a1b26"/>
    </linearGradient>
  </defs>
  <rect width="1200" height="400" fill="url(#bgG)"/>
  <!-- Coverage bars - package coverage visualization -->
  <!-- cmd/peerup -->
  <text x="180" y="82" font-family="SF Mono, monospace" font-size="11" fill="#a9b1d6" text-anchor="end">cmd/peerup</text>
  <rect x="200" y="68" width="400" height="20" rx="4" fill="#1e2030"/>
  <rect x="200" y="68" width="320" height="20" rx="4" fill="#9ece6a" opacity="0.6"/>
  <text x="530" y="83" font-family="SF Mono, monospace" font-size="10" fill="#9ece6a">80%</text>
  <!-- internal/daemon -->
  <text x="180" y="114" font-family="SF Mono, monospace" font-size="11" fill="#a9b1d6" text-anchor="end">internal/daemon</text>
  <rect x="200" y="100" width="400" height="20" rx="4" fill="#1e2030"/>
  <rect x="200" y="100" width="280" height="20" rx="4" fill="#9ece6a" opacity="0.6"/>
  <text x="490" y="115" font-family="SF Mono, monospace" font-size="10" fill="#9ece6a">70%</text>
  <!-- pkg/p2pnet -->
  <text x="180" y="146" font-family="SF Mono, monospace" font-size="11" fill="#a9b1d6" text-anchor="end">pkg/p2pnet</text>
  <rect x="200" y="132" width="400" height="20" rx="4" fill="#1e2030"/>
  <rect x="200" y="132" width="336" height="20" rx="4" fill="#9ece6a" opacity="0.6"/>
  <text x="546" y="147" font-family="SF Mono, monospace" font-size="10" fill="#9ece6a">84%</text>
  <!-- internal/config -->
  <text x="180" y="178" font-family="SF Mono, monospace" font-size="11" fill="#a9b1d6" text-anchor="end">internal/config</text>
  <rect x="200" y="164" width="400" height="20" rx="4" fill="#1e2030"/>
  <rect x="200" y="164" width="300" height="20" rx="4" fill="#9ece6a" opacity="0.6"/>
  <text x="510" y="179" font-family="SF Mono, monospace" font-size="10" fill="#9ece6a">75%</text>
  <!-- internal/auth -->
  <text x="180" y="210" font-family="SF Mono, monospace" font-size="11" fill="#a9b1d6" text-anchor="end">internal/auth</text>
  <rect x="200" y="196" width="400" height="20" rx="4" fill="#1e2030"/>
  <rect x="200" y="196" width="300" height="20" rx="4" fill="#9ece6a" opacity="0.6"/>
  <text x="510" y="211" font-family="SF Mono, monospace" font-size="10" fill="#9ece6a">75%</text>
  <!-- Overall -->
  <text x="180" y="258" font-family="SF Mono, monospace" font-size="13" fill="#c0caf5" text-anchor="end" font-weight="600">COMBINED</text>
  <rect x="200" y="242" width="400" height="24" rx="5" fill="#1e2030"/>
  <rect x="200" y="242" width="321" height="24" rx="5" fill="#7aa2f7" opacity="0.5"/>
  <text x="530" y="259" font-family="SF Mono, monospace" font-size="12" fill="#7aa2f7" font-weight="600">80.3%</text>
  <!-- Security audit section -->
  <rect x="700" y="60" width="420" height="140" rx="10" fill="none" stroke="#24283b" stroke-width="1"/>
  <text x="910" y="90" font-family="system-ui, sans-serif" font-size="14" fill="#c0caf5" text-anchor="middle" font-weight="600">Security Audit</text>
  <text x="720" y="120" font-family="SF Mono, monospace" font-size="11" fill="#9ece6a">CVE-2026-26014</text>
  <text x="920" y="120" font-family="SF Mono, monospace" font-size="11" fill="#9ece6a">RESOLVED</text>
  <text x="720" y="144" font-family="SF Mono, monospace" font-size="11" fill="#9ece6a">CI Actions</text>
  <text x="920" y="144" font-family="SF Mono, monospace" font-size="11" fill="#9ece6a">pinned to SHAs</text>
  <text x="720" y="168" font-family="SF Mono, monospace" font-size="11" fill="#9ece6a">Hardening</text>
  <text x="920" y="168" font-family="SF Mono, monospace" font-size="11" fill="#9ece6a">10 files fixed</text>
  <!-- ADR count -->
  <rect x="700" y="230" width="200" height="120" rx="10" fill="none" stroke="#24283b" stroke-width="1"/>
  <text x="800" y="270" font-family="system-ui, sans-serif" font-size="48" fill="#bb9af7" text-anchor="middle" font-weight="700" opacity="0.7">28</text>
  <text x="800" y="296" font-family="system-ui, sans-serif" font-size="13" fill="#bb9af7" text-anchor="middle" opacity="0.6">ADRs</text>
  <text x="800" y="316" font-family="SF Mono, monospace" font-size="10" fill="#565f89" text-anchor="middle">architecture decisions</text>
  <!-- Docker tests -->
  <rect x="930" y="230" width="190" height="120" rx="10" fill="none" stroke="#24283b" stroke-width="1"/>
  <text x="1025" y="268" font-family="SF Mono, monospace" font-size="12" fill="#e0af68" text-anchor="middle">Docker</text>
  <text x="1025" y="288" font-family="SF Mono, monospace" font-size="12" fill="#e0af68" text-anchor="middle">Integration</text>
  <text x="1025" y="316" font-family="SF Mono, monospace" font-size="10" fill="#565f89" text-anchor="middle">relay + invite + ping</text>
</svg>
