<svg xmlns="http://www.w3.org/2000/svg" viewBox="0 0 800 340" width="800" height="340">
  <!-- Batch A In-Content: Exponential Backoff Timeline
       Shows retry intervals growing: 1s → 2s → 4s → 8s → 16s → 32s → 60s (capped)
       Visual: timeline with growing gaps between retry dots -->
  <defs>
    <linearGradient id="abGrad" x1="0%" y1="0%" x2="100%" y2="0%">
      <stop offset="0%" style="stop-color:#e8729a"/>
      <stop offset="100%" style="stop-color:#9ece6a"/>
    </linearGradient>
  </defs>
  <!-- Background -->
  <rect width="800" height="340" rx="12" fill="#141316"/>
  <!-- Title -->
  <text x="400" y="36" text-anchor="middle" fill="#a9b1d6" font-family="system-ui,sans-serif" font-size="15" font-weight="600">Exponential Backoff with Cap</text>
  <!-- Timeline base line -->
  <line x1="60" y1="180" x2="740" y2="180" stroke="#222124" stroke-width="2"/>
  <!-- Failure flash -->
  <rect x="55" y="100" width="10" height="30" rx="3" fill="#f7768e" opacity="0.8"/>
  <text x="60" y="90" text-anchor="middle" fill="#f7768e" font-family="monospace" font-size="11">FAIL</text>
  <!-- Retry points along timeline with growing gaps -->
  <!-- Retry 1: 1s -->
  <circle cx="110" cy="180" r="8" fill="#e8729a"/>
  <text x="110" y="210" text-anchor="middle" fill="#e8729a" font-family="monospace" font-size="12" font-weight="600">1s</text>
  <text x="110" y="160" text-anchor="middle" fill="#565f89" font-family="monospace" font-size="10">retry 1</text>
  <!-- Arrow showing gap -->
  <line x1="118" y1="180" x2="155" y2="180" stroke="#565f89" stroke-width="1" stroke-dasharray="3,3"/>
  <!-- Retry 2: 2s -->
  <circle cx="170" cy="180" r="8" fill="#e8729a"/>
  <text x="170" y="210" text-anchor="middle" fill="#e8729a" font-family="monospace" font-size="12" font-weight="600">2s</text>
  <text x="170" y="160" text-anchor="middle" fill="#565f89" font-family="monospace" font-size="10">retry 2</text>
  <line x1="178" y1="180" x2="235" y2="180" stroke="#565f89" stroke-width="1" stroke-dasharray="3,3"/>
  <!-- Retry 3: 4s -->
  <circle cx="260" cy="180" r="8" fill="#e8729a"/>
  <text x="260" y="210" text-anchor="middle" fill="#e8729a" font-family="monospace" font-size="12" font-weight="600">4s</text>
  <text x="260" y="160" text-anchor="middle" fill="#565f89" font-family="monospace" font-size="10">retry 3</text>
  <line x1="268" y1="180" x2="355" y2="180" stroke="#565f89" stroke-width="1" stroke-dasharray="3,3"/>
  <!-- Retry 4: 8s -->
  <circle cx="380" cy="180" r="8" fill="#e8729a"/>
  <text x="380" y="210" text-anchor="middle" fill="#e8729a" font-family="monospace" font-size="12" font-weight="600">8s</text>
  <text x="380" y="160" text-anchor="middle" fill="#565f89" font-family="monospace" font-size="10">retry 4</text>
  <line x1="388" y1="180" x2="495" y2="180" stroke="#565f89" stroke-width="1" stroke-dasharray="3,3"/>
  <!-- Retry 5: 16s -->
  <circle cx="520" cy="180" r="8" fill="#bb9af7"/>
  <text x="520" y="210" text-anchor="middle" fill="#bb9af7" font-family="monospace" font-size="12" font-weight="600">16s</text>
  <text x="520" y="160" text-anchor="middle" fill="#565f89" font-family="monospace" font-size="10">retry 5</text>
  <line x1="528" y1="180" x2="615" y2="180" stroke="#565f89" stroke-width="1" stroke-dasharray="3,3"/>
  <!-- Retry 6: 32s -->
  <circle cx="640" cy="180" r="8" fill="#bb9af7"/>
  <text x="640" y="210" text-anchor="middle" fill="#bb9af7" font-family="monospace" font-size="12" font-weight="600">32s</text>
  <text x="640" y="160" text-anchor="middle" fill="#565f89" font-family="monospace" font-size="10">retry 6</text>
  <line x1="648" y1="180" x2="710" y2="180" stroke="#565f89" stroke-width="1" stroke-dasharray="3,3"/>
  <!-- Retry 7: 60s (CAPPED) -->
  <circle cx="725" cy="180" r="10" fill="#9ece6a"/>
  <text x="725" y="213" text-anchor="middle" fill="#9ece6a" font-family="monospace" font-size="12" font-weight="700">60s</text>
  <text x="725" y="157" text-anchor="middle" fill="#9ece6a" font-family="monospace" font-size="10" font-weight="600">capped</text>
  <!-- Growing gap visualization (bars below) -->
  <text x="60" y="255" fill="#565f89" font-family="system-ui,sans-serif" font-size="11">Wait between retries:</text>
  <rect x="110" y="260" width="8" height="12" rx="2" fill="#e8729a" opacity="0.6"/>
  <rect x="170" y="260" width="16" height="12" rx="2" fill="#e8729a" opacity="0.6"/>
  <rect x="260" y="256" width="32" height="16" rx="2" fill="#e8729a" opacity="0.6"/>
  <rect x="380" y="252" width="48" height="20" rx="2" fill="#e8729a" opacity="0.6"/>
  <rect x="520" y="248" width="56" height="24" rx="2" fill="#bb9af7" opacity="0.6"/>
  <rect x="640" y="244" width="64" height="28" rx="2" fill="#bb9af7" opacity="0.6"/>
  <!-- Cap indicator -->
  <line x1="710" y1="240" x2="740" y2="240" stroke="#9ece6a" stroke-width="2" stroke-dasharray="4,2"/>
  <text x="740" y="268" text-anchor="end" fill="#9ece6a" font-family="monospace" font-size="10">max 60s</text>
  <!-- Bottom annotation -->
  <text x="400" y="320" text-anchor="middle" fill="#565f89" font-family="system-ui,sans-serif" font-size="12">Doubles each attempt • Capped at 60 seconds • Wraps any dial function via DialWithRetry()</text>
</svg>
