<svg xmlns="http://www.w3.org/2000/svg" viewBox="0 0 800 360" width="800" height="360">
  <defs>
    <linearGradient id="vpsFill" x1="0%" y1="0%" x2="0%" y2="100%">
      <stop offset="0%" style="stop-color:#3b3078;stop-opacity:1" />
      <stop offset="100%" style="stop-color:#251e50;stop-opacity:1" />
    </linearGradient>
    <linearGradient id="peerFill" x1="0%" y1="0%" x2="0%" y2="100%">
      <stop offset="0%" style="stop-color:#2d3561;stop-opacity:1" />
      <stop offset="100%" style="stop-color:#1e2140;stop-opacity:1" />
    </linearGradient>
    <linearGradient id="greenFill" x1="0%" y1="0%" x2="0%" y2="100%">
      <stop offset="0%" style="stop-color:#2d4a3e;stop-opacity:1" />
      <stop offset="100%" style="stop-color:#1e3330;stop-opacity:1" />
    </linearGradient>
    <filter id="glow">
      <feGaussianBlur stdDeviation="2" result="coloredBlur"/>
      <feMerge>
        <feMergeNode in="coloredBlur"/>
        <feMergeNode in="SourceGraphic"/>
      </feMerge>
    </filter>
  </defs>

  <!-- Background -->
  <rect width="800" height="360" rx="12" fill="#0f1117"/>

  <!-- Title -->
  <text x="400" y="28" font-family="system-ui, sans-serif" font-size="14" fill="#c0caf5" text-anchor="middle" font-weight="600">Decentralization Path - VPS Relay to Fully Distributed</text>

  <!-- Phase 1: Single VPS -->
  <rect x="20" y="60" width="170" height="240" rx="10" fill="#1a1e36" stroke="#e0af68" stroke-width="1" opacity="0.7"/>
  <text x="105" y="52" font-family="system-ui, sans-serif" font-size="11" fill="#e0af68" text-anchor="middle" font-weight="600">Today</text>

  <!-- VPS relay -->
  <rect x="65" y="90" width="80" height="32" rx="6" fill="url(#vpsFill)" stroke="#bb9af7" stroke-width="1.3"/>
  <text x="105" y="110" font-family="SF Mono, monospace" font-size="10" fill="#c0caf5" text-anchor="middle">VPS Relay</text>

  <!-- Peers connected to VPS -->
  <rect x="40" y="165" width="60" height="24" rx="5" fill="url(#peerFill)" stroke="#da1c5c" stroke-width="0.8"/>
  <text x="70" y="181" font-family="SF Mono, monospace" font-size="8" fill="#c0caf5" text-anchor="middle">Peer A</text>
  <rect x="110" y="165" width="60" height="24" rx="5" fill="url(#peerFill)" stroke="#da1c5c" stroke-width="0.8"/>
  <text x="140" y="181" font-family="SF Mono, monospace" font-size="8" fill="#c0caf5" text-anchor="middle">Peer B</text>
  <rect x="75" y="210" width="60" height="24" rx="5" fill="url(#peerFill)" stroke="#da1c5c" stroke-width="0.8"/>
  <text x="105" y="226" font-family="SF Mono, monospace" font-size="8" fill="#c0caf5" text-anchor="middle">Peer C</text>

  <line x1="80" y1="122" x2="70" y2="165" stroke="#e8729a" stroke-width="1" opacity="0.5"/>
  <line x1="105" y1="122" x2="105" y2="210" stroke="#e8729a" stroke-width="1" opacity="0.5"/>
  <line x1="130" y1="122" x2="140" y2="165" stroke="#e8729a" stroke-width="1" opacity="0.5"/>

  <text x="105" y="260" font-family="SF Mono, monospace" font-size="9" fill="#f7768e" text-anchor="middle">Single point</text>
  <text x="105" y="273" font-family="SF Mono, monospace" font-size="9" fill="#f7768e" text-anchor="middle">of failure</text>

  <!-- Arrow -->
  <line x1="195" y1="170" x2="215" y2="170" stroke="#565f89" stroke-width="2"/>
  <polygon points="213,165 213,175 222,170" fill="#565f89"/>

  <!-- Phase 2: VPS + Peer relays -->
  <rect x="225" y="60" width="170" height="240" rx="10" fill="#1a1e36" stroke="#e8729a" stroke-width="1" opacity="0.7"/>
  <text x="310" y="52" font-family="system-ui, sans-serif" font-size="11" fill="#e8729a" text-anchor="middle" font-weight="600">Near-term</text>

  <!-- VPS still exists but smaller -->
  <rect x="260" y="85" width="70" height="26" rx="5" fill="url(#vpsFill)" stroke="#bb9af7" stroke-width="0.8" opacity="0.7"/>
  <text x="295" y="102" font-family="SF Mono, monospace" font-size="9" fill="#c0caf5" text-anchor="middle">VPS</text>

  <!-- Peer relays -->
  <rect x="245" y="130" width="60" height="24" rx="5" fill="url(#greenFill)" stroke="#9ece6a" stroke-width="1"/>
  <text x="275" y="146" font-family="SF Mono, monospace" font-size="8" fill="#9ece6a" text-anchor="middle">Relay A</text>
  <rect x="330" y="130" width="60" height="24" rx="5" fill="url(#greenFill)" stroke="#9ece6a" stroke-width="1"/>
  <text x="360" y="146" font-family="SF Mono, monospace" font-size="8" fill="#9ece6a" text-anchor="middle">Relay B</text>

  <!-- Peers -->
  <rect x="240" y="190" width="55" height="22" rx="4" fill="url(#peerFill)" stroke="#da1c5c" stroke-width="0.8"/>
  <text x="268" y="205" font-family="SF Mono, monospace" font-size="8" fill="#c0caf5" text-anchor="middle">P1</text>
  <rect x="300" y="190" width="55" height="22" rx="4" fill="url(#peerFill)" stroke="#da1c5c" stroke-width="0.8"/>
  <text x="328" y="205" font-family="SF Mono, monospace" font-size="8" fill="#c0caf5" text-anchor="middle">P2</text>
  <rect x="340" y="225" width="55" height="22" rx="4" fill="url(#peerFill)" stroke="#da1c5c" stroke-width="0.8"/>
  <text x="368" y="240" font-family="SF Mono, monospace" font-size="8" fill="#c0caf5" text-anchor="middle">P3</text>

  <line x1="275" y1="154" x2="268" y2="190" stroke="#9ece6a" stroke-width="1" opacity="0.5"/>
  <line x1="360" y1="154" x2="328" y2="190" stroke="#9ece6a" stroke-width="1" opacity="0.5"/>
  <line x1="360" y1="154" x2="368" y2="225" stroke="#9ece6a" stroke-width="1" opacity="0.5"/>
  <line x1="295" y1="111" x2="275" y2="130" stroke="#bb9af7" stroke-width="0.8" opacity="0.4"/>
  <line x1="295" y1="111" x2="345" y2="130" stroke="#bb9af7" stroke-width="0.8" opacity="0.4"/>

  <text x="310" y="268" font-family="SF Mono, monospace" font-size="9" fill="#9ece6a" text-anchor="middle">Multiple relays</text>
  <text x="310" y="281" font-family="SF Mono, monospace" font-size="9" fill="#565f89" text-anchor="middle">IPv6 / port-fwd peers</text>

  <!-- Arrow -->
  <line x1="400" y1="170" x2="420" y2="170" stroke="#565f89" stroke-width="2"/>
  <polygon points="418,165 418,175 427,170" fill="#565f89"/>

  <!-- Phase 3: DHT discovery -->
  <rect x="430" y="60" width="170" height="240" rx="10" fill="#1a1e36" stroke="#9ece6a" stroke-width="1" opacity="0.7"/>
  <text x="515" y="52" font-family="system-ui, sans-serif" font-size="11" fill="#9ece6a" text-anchor="middle" font-weight="600">Medium-term</text>

  <!-- Peer relays (no VPS) -->
  <rect x="445" y="95" width="55" height="22" rx="4" fill="url(#greenFill)" stroke="#9ece6a" stroke-width="1"/>
  <text x="473" y="110" font-family="SF Mono, monospace" font-size="8" fill="#9ece6a" text-anchor="middle">R1</text>
  <rect x="530" y="95" width="55" height="22" rx="4" fill="url(#greenFill)" stroke="#9ece6a" stroke-width="1"/>
  <text x="558" y="110" font-family="SF Mono, monospace" font-size="8" fill="#9ece6a" text-anchor="middle">R2</text>
  <rect x="487" y="140" width="55" height="22" rx="4" fill="url(#greenFill)" stroke="#9ece6a" stroke-width="1"/>
  <text x="515" y="155" font-family="SF Mono, monospace" font-size="8" fill="#9ece6a" text-anchor="middle">R3</text>

  <!-- Peers -->
  <rect x="440" y="195" width="50" height="20" rx="4" fill="url(#peerFill)" stroke="#da1c5c" stroke-width="0.8"/>
  <text x="465" y="209" font-family="SF Mono, monospace" font-size="8" fill="#c0caf5" text-anchor="middle">P</text>
  <rect x="500" y="195" width="50" height="20" rx="4" fill="url(#peerFill)" stroke="#da1c5c" stroke-width="0.8"/>
  <text x="525" y="209" font-family="SF Mono, monospace" font-size="8" fill="#c0caf5" text-anchor="middle">P</text>
  <rect x="555" y="195" width="50" height="20" rx="4" fill="url(#peerFill)" stroke="#da1c5c" stroke-width="0.8"/>
  <text x="580" y="209" font-family="SF Mono, monospace" font-size="8" fill="#c0caf5" text-anchor="middle">P</text>

  <!-- Mesh connections -->
  <line x1="473" y1="117" x2="515" y2="140" stroke="#9ece6a" stroke-width="0.8" opacity="0.4"/>
  <line x1="558" y1="117" x2="515" y2="140" stroke="#9ece6a" stroke-width="0.8" opacity="0.4"/>
  <line x1="473" y1="117" x2="558" y2="117" stroke="#9ece6a" stroke-width="0.8" opacity="0.4"/>
  <line x1="473" y1="117" x2="465" y2="195" stroke="#e8729a" stroke-width="0.8" opacity="0.3"/>
  <line x1="558" y1="117" x2="580" y2="195" stroke="#e8729a" stroke-width="0.8" opacity="0.3"/>
  <line x1="515" y1="162" x2="525" y2="195" stroke="#e8729a" stroke-width="0.8" opacity="0.3"/>

  <text x="515" y="243" font-family="SF Mono, monospace" font-size="9" fill="#9ece6a" text-anchor="middle">DHT discovery</text>
  <text x="515" y="256" font-family="SF Mono, monospace" font-size="9" fill="#565f89" text-anchor="middle">no central endpoint</text>

  <!-- Arrow -->
  <line x1="605" y1="170" x2="625" y2="170" stroke="#565f89" stroke-width="2"/>
  <polygon points="623,165 623,175 632,170" fill="#565f89"/>

  <!-- Phase 4: Fully distributed -->
  <rect x="635" y="60" width="145" height="240" rx="10" fill="#1a1e36" stroke="#9ece6a" stroke-width="1.5" opacity="0.9"/>
  <text x="708" y="52" font-family="system-ui, sans-serif" font-size="11" fill="#9ece6a" text-anchor="middle" font-weight="600">End state</text>

  <!-- Every peer is a relay -->
  <rect x="650" y="90" width="50" height="20" rx="4" fill="url(#greenFill)" stroke="#9ece6a" stroke-width="1"/>
  <text x="675" y="104" font-family="SF Mono, monospace" font-size="7" fill="#9ece6a" text-anchor="middle">P+R</text>
  <rect x="715" y="90" width="50" height="20" rx="4" fill="url(#greenFill)" stroke="#9ece6a" stroke-width="1"/>
  <text x="740" y="104" font-family="SF Mono, monospace" font-size="7" fill="#9ece6a" text-anchor="middle">P+R</text>
  <rect x="650" y="130" width="50" height="20" rx="4" fill="url(#greenFill)" stroke="#9ece6a" stroke-width="1"/>
  <text x="675" y="144" font-family="SF Mono, monospace" font-size="7" fill="#9ece6a" text-anchor="middle">P+R</text>
  <rect x="715" y="130" width="50" height="20" rx="4" fill="url(#greenFill)" stroke="#9ece6a" stroke-width="1"/>
  <text x="740" y="144" font-family="SF Mono, monospace" font-size="7" fill="#9ece6a" text-anchor="middle">P+R</text>
  <rect x="683" y="170" width="50" height="20" rx="4" fill="url(#greenFill)" stroke="#9ece6a" stroke-width="1"/>
  <text x="708" y="184" font-family="SF Mono, monospace" font-size="7" fill="#9ece6a" text-anchor="middle">P+R</text>

  <!-- Mesh -->
  <line x1="675" y1="110" x2="740" y2="110" stroke="#9ece6a" stroke-width="0.6" opacity="0.4"/>
  <line x1="675" y1="110" x2="675" y2="130" stroke="#9ece6a" stroke-width="0.6" opacity="0.4"/>
  <line x1="740" y1="110" x2="740" y2="130" stroke="#9ece6a" stroke-width="0.6" opacity="0.4"/>
  <line x1="675" y1="150" x2="708" y2="170" stroke="#9ece6a" stroke-width="0.6" opacity="0.4"/>
  <line x1="740" y1="150" x2="708" y2="170" stroke="#9ece6a" stroke-width="0.6" opacity="0.4"/>
  <line x1="675" y1="110" x2="740" y2="130" stroke="#9ece6a" stroke-width="0.6" opacity="0.3"/>
  <line x1="740" y1="110" x2="675" y2="130" stroke="#9ece6a" stroke-width="0.6" opacity="0.3"/>

  <text x="708" y="215" font-family="SF Mono, monospace" font-size="9" fill="#9ece6a" text-anchor="middle">Every public peer</text>
  <text x="708" y="228" font-family="SF Mono, monospace" font-size="9" fill="#9ece6a" text-anchor="middle">relays for its</text>
  <text x="708" y="241" font-family="SF Mono, monospace" font-size="9" fill="#9ece6a" text-anchor="middle">authorized peers</text>

  <text x="708" y="270" font-family="SF Mono, monospace" font-size="9" fill="#e0af68" text-anchor="middle" font-weight="600">VPS obsolete</text>

  <!-- Bottom comparison -->
  <text x="400" y="340" font-family="system-ui, sans-serif" font-size="10" fill="#565f89" text-anchor="middle" opacity="0.7">
    Same path as Bitcoin: hardcoded seeds -> DNS seeds -> peer exchange -> fully self-sustaining
  </text>
</svg>
